<svg width="70" height="70" viewBox="0 0 70 70" fill="none" xmlns="http://www.w3.org/2000/svg">
<rect width="70" height="70" rx="35" fill="#020438"/>
<path d="M28.925 24.25H33.5969V39.2812C33.5969 41.0312 33.2219 42.5052 32.4719 43.7031C31.7323 44.901 30.7062 45.8021 29.3937 46.4062C28.0917 47.0104 26.5917 47.3125 24.8937 47.3125C23.1958 47.3125 21.6854 47.0104 20.3625 46.4062C19.05 45.8021 18.0187 44.901 17.2687 43.7031C16.5292 42.5052 16.1594 41.0312 16.1594 39.2812V24.25H20.8469V39.2812C20.8469 40.3021 21.0083 41.1354 21.3312 41.7812C21.6542 42.4271 22.1177 42.901 22.7219 43.2031C23.3365 43.5052 24.0604 43.6562 24.8937 43.6562C25.7479 43.6562 26.4719 43.5052 27.0656 43.2031C27.6698 42.901 28.1281 42.4271 28.4406 41.7812C28.7635 41.1354 28.925 40.3021 28.925 39.2812V24.25ZM48.0281 24.25V47H43.3562V24.25H48.0281ZM55.0281 24.25V27.9219H36.4656V24.25H55.0281Z" fill="white"/>
</svg>